<mxfile host="app.diagrams.net" agent="Mozilla/5.0 (Windows NT 10.0; Win64; x64; rv:138.0) Gecko/20100101 Firefox/138.0" version="27.0.5">
  <diagram name="Page-1" id="ZlzabPiTbaUQpChFesmF">
    <mxGraphModel dx="1186" dy="721" grid="1" gridSize="10" guides="1" tooltips="1" connect="1" arrows="1" fold="1" page="1" pageScale="1" pageWidth="850" pageHeight="1100" math="0" shadow="0">
      <root>
        <mxCell id="0" />
        <mxCell id="1" parent="0" />
        <mxCell id="X5HH1Tl0bPug6Kl7a2SG-1" value="&lt;font style=&quot;font-size: 16px;&quot;&gt;&lt;b&gt;EDITOR&lt;/b&gt;&lt;/font&gt;" style="rounded=1;whiteSpace=wrap;html=1;gradientColor=none;strokeWidth=4;strokeColor=light-dark(#000000,#66B2FF);" parent="1" vertex="1">
          <mxGeometry x="36" y="170" width="120" height="60" as="geometry" />
        </mxCell>
        <mxCell id="X5HH1Tl0bPug6Kl7a2SG-2" value="&lt;b&gt;&lt;font style=&quot;font-size: 16px;&quot;&gt;YAML HUMANO&lt;/font&gt;&lt;/b&gt;" style="rounded=1;whiteSpace=wrap;html=1;gradientColor=none;strokeWidth=4;strokeColor=light-dark(#000000,#66B2FF);" parent="1" vertex="1">
          <mxGeometry x="280" y="170" width="120" height="60" as="geometry" />
        </mxCell>
        <mxCell id="X5HH1Tl0bPug6Kl7a2SG-3" value="&lt;b&gt;&lt;font style=&quot;font-size: 16px;&quot;&gt;DICIONÁRIO PYTHON&lt;/font&gt;&lt;/b&gt;" style="rounded=1;whiteSpace=wrap;html=1;gradientColor=none;strokeWidth=4;strokeColor=light-dark(#000000,#66B2FF);" parent="1" vertex="1">
          <mxGeometry x="524" y="170" width="120" height="60" as="geometry" />
        </mxCell>
        <mxCell id="X5HH1Tl0bPug6Kl7a2SG-4" value="&lt;b&gt;&lt;font style=&quot;font-size: 16px;&quot;&gt;JSON API&lt;/font&gt;&lt;/b&gt;" style="rounded=1;whiteSpace=wrap;html=1;gradientColor=none;strokeWidth=4;strokeColor=light-dark(#000000,#66B2FF);" parent="1" vertex="1">
          <mxGeometry x="767" y="170" width="120" height="60" as="geometry" />
        </mxCell>
        <mxCell id="X5HH1Tl0bPug6Kl7a2SG-5" value="&lt;b&gt;&lt;font style=&quot;font-size: 16px;&quot;&gt;DNA CENTER / ACI&lt;/font&gt;&lt;/b&gt;" style="rounded=1;whiteSpace=wrap;html=1;gradientColor=none;strokeWidth=4;strokeColor=light-dark(#000000,#66B2FF);" parent="1" vertex="1">
          <mxGeometry x="1010" y="170" width="170" height="60" as="geometry" />
        </mxCell>
        <mxCell id="X5HH1Tl0bPug6Kl7a2SG-6" value="&lt;font style=&quot;font-size: 16px;&quot;&gt;&lt;b&gt;dumps&lt;/b&gt;&lt;/font&gt;" style="text;html=1;whiteSpace=wrap;overflow=hidden;rounded=0;" parent="1" vertex="1">
          <mxGeometry x="670" y="160" width="60" height="30" as="geometry" />
        </mxCell>
        <mxCell id="X5HH1Tl0bPug6Kl7a2SG-7" value="" style="endArrow=classic;html=1;rounded=0;strokeWidth=5;fillColor=#1ba1e2;strokeColor=#006EAF;" parent="1" edge="1">
          <mxGeometry width="50" height="50" relative="1" as="geometry">
            <mxPoint x="400" y="199.5" as="sourcePoint" />
            <mxPoint x="520" y="199.5" as="targetPoint" />
          </mxGeometry>
        </mxCell>
        <mxCell id="X5HH1Tl0bPug6Kl7a2SG-8" value="" style="endArrow=classic;html=1;rounded=0;strokeWidth=5;fillColor=#1ba1e2;strokeColor=#006EAF;" parent="1" edge="1">
          <mxGeometry width="50" height="50" relative="1" as="geometry">
            <mxPoint x="157" y="199.5" as="sourcePoint" />
            <mxPoint x="277" y="199.5" as="targetPoint" />
          </mxGeometry>
        </mxCell>
        <mxCell id="X5HH1Tl0bPug6Kl7a2SG-9" value="" style="endArrow=classic;html=1;rounded=0;strokeWidth=5;fillColor=#1ba1e2;strokeColor=#006EAF;" parent="1" edge="1">
          <mxGeometry width="50" height="50" relative="1" as="geometry">
            <mxPoint x="644" y="199.5" as="sourcePoint" />
            <mxPoint x="764" y="199.5" as="targetPoint" />
          </mxGeometry>
        </mxCell>
        <mxCell id="X5HH1Tl0bPug6Kl7a2SG-10" value="" style="endArrow=classic;html=1;rounded=0;strokeWidth=5;fillColor=#1ba1e2;strokeColor=#006EAF;" parent="1" edge="1">
          <mxGeometry width="50" height="50" relative="1" as="geometry">
            <mxPoint x="887" y="199.5" as="sourcePoint" />
            <mxPoint x="1007" y="199.5" as="targetPoint" />
          </mxGeometry>
        </mxCell>
        <mxCell id="X5HH1Tl0bPug6Kl7a2SG-11" value="&lt;div align=&quot;center&quot;&gt;&lt;font style=&quot;font-size: 16px;&quot;&gt;CONVERSÂO EM PYTHON PARA JSON&lt;/font&gt;&lt;/div&gt;" style="text;html=1;whiteSpace=wrap;overflow=hidden;rounded=0;align=center;fontStyle=1" parent="1" vertex="1">
          <mxGeometry x="640" y="220" width="120" height="60" as="geometry" />
        </mxCell>
        <mxCell id="X5HH1Tl0bPug6Kl7a2SG-12" value="&lt;font style=&quot;font-size: 16px;&quot;&gt;&lt;b&gt;&lt;font&gt;post / put&lt;/font&gt;&lt;/b&gt;&lt;/font&gt;" style="text;html=1;whiteSpace=wrap;overflow=hidden;rounded=0;" parent="1" vertex="1">
          <mxGeometry x="910" y="160" width="80" height="30" as="geometry" />
        </mxCell>
        <mxCell id="L7BG2Ehc3fDWZeo9WnkU-1" value="&lt;b&gt;&lt;font style=&quot;font-size: 16px;&quot;&gt;escrita humana&lt;/font&gt;&lt;/b&gt;" style="text;html=1;whiteSpace=wrap;overflow=hidden;rounded=0;align=center;" vertex="1" parent="1">
          <mxGeometry x="170" y="150" width="70" height="50" as="geometry" />
        </mxCell>
        <mxCell id="L7BG2Ehc3fDWZeo9WnkU-2" value="&lt;b&gt;&lt;font style=&quot;font-size: 16px;&quot;&gt;safe_load()&lt;/font&gt;&lt;/b&gt;" style="text;html=1;whiteSpace=wrap;overflow=hidden;rounded=0;" vertex="1" parent="1">
          <mxGeometry x="415" y="160" width="90" height="30" as="geometry" />
        </mxCell>
        <mxCell id="L7BG2Ehc3fDWZeo9WnkU-3" value="&lt;b&gt;&lt;font style=&quot;font-size: 16px;&quot;&gt;deploy&lt;/font&gt;&lt;/b&gt;" style="text;html=1;whiteSpace=wrap;overflow=hidden;rounded=0;align=center;" vertex="1" parent="1">
          <mxGeometry x="910" y="210" width="80" height="30" as="geometry" />
        </mxCell>
      </root>
    </mxGraphModel>
  </diagram>
</mxfile>
